<svg xmlns="http://www.w3.org/2000/svg" version="1.1" xmlns:xlink="http://www.w3.org/1999/xlink" xmlns:svgjs="http://svgjs.dev/svgjs" width="1000" height="1000" viewBox="0 0 1000 1000"><g transform="matrix(0.7,0,0,0.7,149.57575757575756,282.1265587044535)"><svg viewBox="0 0 396 247" data-background-color="#ffffff" preserveAspectRatio="xMidYMid meet" height="623" width="1000" xmlns="http://www.w3.org/2000/svg" xmlns:xlink="http://www.w3.org/1999/xlink"><g id="tight-bounds" transform="matrix(1,0,0,1,0.2400000000000091,-0.09999999999999432)"><svg viewBox="0 0 395.52 247.2" height="247.2" width="395.52"><g><svg></svg></g><g><svg viewBox="0 0 395.52 247.2" height="247.2" width="395.52"><g transform="matrix(1,0,0,1,75.54432,102.24428956565151)"><svg viewBox="0 0 244.43135999999998 42.71142086869695" height="42.71142086869695" width="244.43135999999998"><g><svg viewBox="0 0 244.43135999999998 42.71142086869695" height="42.71142086869695" width="244.43135999999998"><g><svg viewBox="0 0 244.43135999999998 42.71142086869695" height="42.71142086869695" width="244.43135999999998"><g><svg viewBox="0 0 244.43135999999998 42.71142086869695" height="42.71142086869695" width="244.43135999999998"><g id="textblocktransform"><svg viewBox="0 0 244.43135999999998 42.71142086869695" height="42.71142086869695" width="244.43135999999998" id="textblock"><g><svg viewBox="0 0 244.43135999999998 42.71142086869695" height="42.71142086869695" width="244.43135999999998"><g transform="matrix(1,0,0,1,0,0)"><svg width="244.43135999999998" viewBox="3.700000047683716 -34.400001525878906 200.29000854492188 35" height="42.71142086869695" data-palette-color="#31c48d"><path d="M3.7 0L3.7-34.4 31.5-34.4 31.5-26.15 14.75-26.15 14.75-20.25 29.15-20.25 29.15-12.35 14.75-12.35 14.75 0 3.7 0ZM50.7-27.05Q51.85-27.05 52.75-26.78 53.65-26.5 53.65-26.45L53.65-26.45 53.65-18.1 50.45-18.1Q47.35-18.1 45.97-16.5 44.6-14.9 44.6-11.75L44.6-11.75 44.6 0 34.65 0 34.65-26.4 42.8-26.4 43.45-22.4Q44.35-24.7 46.3-25.88 48.25-27.05 50.7-27.05L50.7-27.05ZM71.3-27Q78.55-27 82.37-23.6 86.2-20.2 86.2-13.2L86.2-13.2 86.2-11.5 66.4-11.5Q66.4-8.65 67.67-7.2 68.95-5.75 71.7-5.75L71.7-5.75Q74.2-5.75 75.37-6.8 76.55-7.85 76.55-9.6L76.55-9.6 86.2-9.6Q86.2-4.8 82.55-2.1 78.9 0.6 71.9 0.6L71.9 0.6Q64.55 0.6 60.5-2.83 56.45-6.25 56.45-13.2L56.45-13.2Q56.45-20 60.4-23.5 64.34-27 71.3-27L71.3-27ZM71.7-20.65Q67-20.65 66.45-16.2L66.45-16.2 76.15-16.2Q76.15-18.25 74.97-19.45 73.8-20.65 71.7-20.65L71.7-20.65ZM104.64-27Q111.89-27 115.72-23.6 119.54-20.2 119.54-13.2L119.54-13.2 119.54-11.5 99.74-11.5Q99.74-8.65 101.02-7.2 102.29-5.75 105.04-5.75L105.04-5.75Q107.54-5.75 108.72-6.8 109.89-7.85 109.89-9.6L109.89-9.6 119.54-9.6Q119.54-4.8 115.89-2.1 112.24 0.6 105.24 0.6L105.24 0.6Q97.89 0.6 93.84-2.83 89.79-6.25 89.79-13.2L89.79-13.2Q89.79-20 93.74-23.5 97.69-27 104.64-27L104.64-27ZM105.04-20.65Q100.34-20.65 99.79-16.2L99.79-16.2 109.49-16.2Q109.49-18.25 108.32-19.45 107.14-20.65 105.04-20.65L105.04-20.65ZM147.64-23.3L136.44-6.75 148.09-6.75 148.09 0 122.34 0 122.34-3.25 133.44-19.65 122.94-19.65 122.94-26.4 147.64-26.4 147.64-23.3ZM165.29-27Q172.54-27 176.36-23.6 180.19-20.2 180.19-13.2L180.19-13.2 180.19-11.5 160.39-11.5Q160.39-8.65 161.66-7.2 162.94-5.75 165.69-5.75L165.69-5.75Q168.19-5.75 169.36-6.8 170.54-7.85 170.54-9.6L170.54-9.6 180.19-9.6Q180.19-4.8 176.54-2.1 172.89 0.6 165.89 0.6L165.89 0.6Q158.54 0.6 154.49-2.83 150.44-6.25 150.44-13.2L150.44-13.2Q150.44-20 154.39-23.5 158.34-27 165.29-27L165.29-27ZM165.69-20.65Q160.99-20.65 160.44-16.2L160.44-16.2 170.14-16.2Q170.14-18.25 168.96-19.45 167.79-20.65 165.69-20.65L165.69-20.65ZM201.04-27.05Q202.19-27.05 203.09-26.78 203.99-26.5 203.99-26.45L203.99-26.45 203.99-18.1 200.79-18.1Q197.69-18.1 196.31-16.5 194.94-14.9 194.94-11.75L194.94-11.75 194.94 0 184.99 0 184.99-26.4 193.14-26.4 193.79-22.4Q194.69-24.7 196.64-25.88 198.59-27.05 201.04-27.05L201.04-27.05Z" opacity="1" transform="matrix(1,0,0,1,0,0)" fill="#ffffff" class="wordmark-text-0" data-fill-palette-color="primary" id="text-0"></path></svg></g></svg></g></svg></g></svg></g></svg></g></svg></g></svg></g><g><path d="M245.816 0c68.262 0 123.6 55.338 123.6 123.6 0 68.262-55.338 123.6-123.6 123.6-59.203 0-108.683-41.623-120.775-97.203l1.972 0c12.057 54.507 60.669 95.277 118.803 95.277 67.199 0 121.674-54.475 121.674-121.674 0-67.199-54.475-121.674-121.674-121.674-58.134 0-106.746 40.77-118.803 95.277h-1.972c12.091-55.579 61.572-97.203 120.775-97.203z" fill="#ffffff" stroke="transparent" data-fill-palette-color="tertiary"></path></g></svg></g><defs></defs></svg><rect width="395.52" height="247.2" fill="none" stroke="none" visibility="hidden"></rect></g></svg></g></svg>